<svg id="Capa_1" enable-background="new 0 0 512 512" height="512" viewBox="0 0 512 512" width="512" xmlns="http://www.w3.org/2000/svg"><g><g><g><g><g><g><g><g><g><path d="m7.608 318.197c-4.97-19.912-7.608-40.746-7.608-62.197 0-141.385 114.615-256 256-256s256 114.615 256 256c0 21.169-2.569 41.738-7.414 61.412z" fill="#bfe1ff"/></g></g></g></g></g></g></g></g><path d="m504.668 317.082c4.791-19.574 7.332-40.031 7.332-61.082 0-8.922-.457-17.737-1.347-26.424l-106.436-106.435 11.55 223.469z" fill="#87c7ff"/><g><g><g><g><g><g><g><g><circle cx="256" cy="256" fill="#fa0" r="199.053"/></g></g></g></g></g></g></g></g><g><g><g><g><g><g><g><g><path d="m256 56.947c-.089 0-.177.003-.266.003v398.1c.089 0 .177.003.266.003 109.934 0 199.053-89.119 199.053-199.053s-89.119-199.053-199.053-199.053z" fill="#ff9500"/></g></g></g></g></g></g></g></g><g><g><g><g><g><g><g><g><circle cx="256" cy="256" fill="#ffce00" r="144.07"/></g></g></g></g></g></g></g></g><g><g><g><g><g><g><g><g><path d="m256 111.93c-.089 0-.177.003-.266.003v288.133c.089 0 .177.003.266.003 79.568 0 144.07-64.502 144.07-144.07s-64.502-144.069-144.07-144.069z" fill="#fdba12"/></g></g></g></g></g></g></g></g><g><path d="m256 256c-94.867 0-181.699 22.934-248.702 60.94 27.34 111.964 128.317 195.06 248.702 195.06s221.362-83.096 248.702-195.06c-67.003-38.006-153.835-60.94-248.702-60.94z" fill="#b674f2"/></g><g><path d="m256 256c-.089 0-.177.002-.266.002v255.995c.089 0 .177.003.266.003 120.385 0 221.362-83.096 248.702-195.06-67.003-38.006-153.835-60.94-248.702-60.94z" fill="#8f4cd6"/></g></g></svg>